
<svg width="479px" height="84px" viewBox="0 0 479 84" version="1.1" xmlns="http://www.w3.org/2000/svg" xmlns:xlink="http://www.w3.org/1999/xlink">
    <g id="Page-1" stroke="none" stroke-width="1" fill="none" fill-rule="evenodd">
        <text id="Școli-Bune" font-family="Nunito-Bold, Nunito" font-size="70" font-weight="bold" fill="#4A00E0">
            <tspan x="138" y="64">Școli Bune</tspan>
        </text>
        <g id="graduation-cap-solid" fill="#4A00E0" fill-rule="nonzero">
            <path d="M61.5,0 L59.6623506,0.982248521 L6.73804781,28.4852071 L0,31.9230769 L6.61553785,35.2381657 L6.61553785,68.3890533 C4.27253584,69.7549916 2.69521912,72.2413102 2.69521912,75.1420118 C2.69521912,79.485393 6.20206575,83 10.5358566,83 C14.8696474,83 18.376494,79.485393 18.376494,75.1420118 C18.376494,72.2413102 16.7991773,69.7549916 14.4561753,68.3890533 L14.4561753,39.2899408 L22.2968127,43.341716 L22.2968127,63.3550296 C22.2968127,65.0893111 23.0931275,66.6547717 24.0119522,67.6523669 C24.9307769,68.649962 26.0486793,69.2485207 27.1972112,69.862426 C29.5095876,71.07489 32.250749,71.9343575 35.6503984,72.6863905 C42.4497012,74.2058072 51.5154382,75.1420118 61.5,75.1420118 C71.4845618,75.1420118 80.5502988,74.2058072 87.3496016,72.6863905 C90.7492549,71.9343575 93.4904124,71.07489 95.8027888,69.862426 C96.9513207,69.2485207 98.0692231,68.649962 98.9880478,67.6523669 C99.9068725,66.6547717 100.703187,65.0893111 100.703187,63.3550296 L100.703187,43.341716 L116.261952,35.3609467 L123,31.9230769 L116.261952,28.4852071 L63.3376494,0.982248521 L61.5,0 Z M61.5,8.84023669 L105.848606,31.9230769 L98.8655378,35.4837278 C97.9773426,34.5475232 96.9053785,33.8568807 95.8027888,33.2736686 C93.5057291,32.0612046 90.7492549,31.2017372 87.3496016,30.4497041 C80.5656116,28.9302875 71.530504,27.9940828 61.5,27.9940828 C51.469496,27.9940828 42.4343884,28.9302875 35.6503984,30.4497041 C32.250749,31.2017372 29.4942749,32.0612046 27.1972112,33.2736686 C26.0946215,33.8568807 25.0226613,34.5475232 24.1344622,35.4837278 L17.1513944,31.9230769 L61.5,8.84023669 Z M61.5,35.852071 C71.0710897,35.852071 79.6774163,36.7268851 85.6344622,38.0621302 C88.6053306,38.7220794 90.9942749,39.4894591 92.25,40.1494083 C92.6481593,40.3642771 92.7094143,40.5177515 92.8625498,40.6405325 L92.8625498,55.6198225 C91.2239781,55.0212638 89.4322709,54.4840996 87.3496016,54.0236686 C80.5502988,52.504252 71.4845618,51.5680473 61.5,51.5680473 C51.5154382,51.5680473 42.4497012,52.504252 35.6503984,54.0236686 C33.5677291,54.4840996 31.7760219,55.0212638 30.1374502,55.6198225 L30.1374502,40.6405325 C30.2905896,40.5177515 30.3518446,40.3642771 30.75,40.1494083 C32.0057291,39.4894591 34.3946733,38.7220794 37.3655378,38.0621302 C43.3225837,36.7268851 51.9289103,35.852071 61.5,35.852071 Z M61.5,59.4260355 C71.0098347,59.4260355 79.6621036,60.3008496 85.6344622,61.6360947 C88.1152908,62.1886095 89.6772908,62.7718215 91.0249004,63.3550296 C89.6772908,63.9382416 88.1152908,64.5214497 85.6344622,65.0739645 C79.6621036,66.4092096 71.0098347,67.2840237 61.5,67.2840237 C51.9901653,67.2840237 43.3379004,66.4092096 37.3655378,65.0739645 C34.8847131,64.5214497 33.3227092,63.9382416 31.9750996,63.3550296 C33.3227092,62.7718215 34.8847131,62.1886095 37.3655378,61.6360947 C43.3379004,60.3008496 51.9901653,59.4260355 61.5,59.4260355 Z" id="Shape"></path>
        </g>
    </g>
</svg>